<svg  width="39" height="38" viewBox="0 0 39 38" fill="none" xmlns="http://www.w3.org/2000/svg"><path d="M19.5047 4c-4.7816 0-8.6717 3.8902-8.6717 8.6718 0 2.9617 1.4928 5.581 3.7653 7.1461-2.1216.7321-4.0663 1.9415-5.69998 3.5752-2.83317 2.8332-4.39344 6.6-4.39344 10.6066h2.34373c0-6.9786 5.67749-12.6561 12.65609-12.6561 4.7816 0 8.6718-3.8902 8.6718-8.6718C28.1765 7.89014 24.2863 4 19.5047 4zm0 14.9998c-3.4893 0-6.328-2.8387-6.328-6.328 0-3.48927 2.8387-6.32808 6.328-6.32808 3.4893 0 6.3281 2.83875 6.3281 6.32808 0 3.4894-2.8388 6.328-6.3281 6.328zM29.6416 26.7344v-4.9219h-2.3438v4.9219H22.376v2.3437h4.9218v4.9218h2.3438v-4.9218h4.9218v-2.3437h-4.9218z" fill="#fff"/></svg>