<svg width="33" height="32" viewBox="0 0 33 32" fill="none" xmlns="http://www.w3.org/2000/svg"><path d="M21.5342 20.1294c0-.5523-.4477-1-1-1s-1 .4477-1 1h2zm-16.00002 1h-1 1zm4-11c.55232 0 1.00002-.44772 1.00002-1.00001 0-.55228-.4477-1-1.00002-1v2.00001zm5.66002-2.00001c-.5523 0-1 .44772-1 1 0 .55229.4477 1.00001 1 1.00001V8.12939zm5.34 6.34001h-1c0 .2652.1053.5196.2929.7071l.7071-.7071zm1 1l-.7071.7071c.3472.3473.8953.391 1.2932.1031l-.5861-.8102zm6-4.34h1c0-.3757-.2106-.7196-.5451-.8905-.3345-.1709-.7366-.1399-1.041.0802l.5861.8103zm-1 10c0 .5523.4477 1 1 1s1-.4477 1-1h-2zm-7-1v1h2v-1h-2zm0 1c0 .5523-.4477 1-1 1v2c1.6568 0 3-1.3432 3-3h-2zm-1 1H7.53418v2H18.5342v-2zm-11.00002 0c-.55229 0-1-.4477-1-1h-2c0 1.6568 1.34315 3 3 3v-2zm-1-1v-10h-2v10h2zm0-10c0-.5523.44771-1 1-1V8.12939c-1.65685 0-3 1.34315-3 3.00001h2zm1-1h2V8.12939h-2v2.00001zm7.66002 0h3.34V8.12939h-3.34v2.00001zm3.34 0c.5523 0 1 .4477 1 1h2c0-1.65686-1.3432-3.00001-3-3.00001v2.00001zm1 1v3.34h2v-3.34h-2zm.2929 4.0471l1 1 1.4142-1.4142-1-1-1.4142 1.4142zm2.2932 1.1031l6-4.34-1.1722-1.6205-6 4.34 1.1722 1.6205zm4.4139-5.1502v10h2v-10h-2z" fill="#fff"/><path d="M5.53418 5.12939L27.5342 27.1294" stroke="#fff" stroke-width="2" stroke-linecap="round" stroke-linejoin="round"/></svg>