<svg width="33" height="32" viewBox="0 0 33 32" fill="none"
	  xmlns="http://www.w3.org/2000/svg">
	<path clip-rule="evenodd"
			d="M15.2012 6.6665l-6.66669 5.3333H3.20117v8h5.33334l6.66669 5.3334V6.6665z"
			stroke="#fff" stroke-width="2" stroke-linecap="round"
			stroke-linejoin="round"/>
	<path
		d="M26.6679 5.86624c-.3905-.39058-1.0237-.39068-1.4142-.00021-.3906.39046-.3907 1.02363-.0002 1.41421l1.4144-1.414zM25.2535 24.7196c-.3905.3906-.3904 1.0237.0002 1.4142.3905.3905 1.0237.3904 1.4142-.0002l-1.4144-1.414zm-3.2924-14.1468c-.3904-.3905-1.0236-.3906-1.4142-.0002-.3906.3905-.3907 1.0237-.0002 1.4142l1.4144-1.414zm-1.4144 9.4267c-.3905.3906-.3904 1.0238.0002 1.4142.3906.3905 1.0238.3904 1.4142-.0002l-1.4144-1.414zm4.7068-12.71926c4.8147 4.81616 4.8147 12.62316 0 17.43936l1.4144 1.414c5.5955-5.5972 5.5955-14.6702 0-20.26736l-1.4144 1.414zm-4.7068 4.70656c2.2122 2.2129 2.2122 5.7999 0 8.0127l1.4144 1.414c2.993-2.9938 2.993-7.8468 0-10.8407l-1.4144 1.414z"
		fill="#fff"/>
</svg>