<svg width="39" height="38" viewBox="0 0 39 38" xmlns="http://www.w3.org/2000/svg">
<path d="M32.1984 17.7336C31.8618 17.7336 31.539 17.867 31.301 18.1046C31.063 18.3421 30.9293 18.6643 30.9293 19.0003C30.944 21.6813 30.0168 24.2827 28.3089 26.352C26.601 28.4214 24.2204 29.8277 21.5812 30.3266C18.9419 30.8254 16.211 30.3851 13.8633 29.0823C11.5156 27.7796 9.69967 25.6967 8.73129 23.1959C7.76291 20.6951 7.70335 17.9346 8.56297 15.3946C9.42258 12.8545 11.147 10.6955 13.4363 9.29304C15.7256 7.89058 18.4351 7.33339 21.0934 7.71835C23.7517 8.10332 26.1907 9.4061 27.9863 11.4001H24.5839C24.2473 11.4001 23.9245 11.5336 23.6865 11.7711C23.4485 12.0087 23.3148 12.3309 23.3148 12.6668C23.3148 13.0028 23.4485 13.325 23.6865 13.5625C23.9245 13.8001 24.2473 13.9335 24.5839 13.9335H32.1984V6.33334C32.1984 5.9974 32.0647 5.67521 31.8267 5.43766C31.5887 5.20011 31.2659 5.06665 30.9293 5.06665C30.5927 5.06665 30.2699 5.20011 30.0319 5.43766C29.7939 5.67521 29.6602 5.9974 29.6602 6.33334V9.47348C27.4336 7.12215 24.4553 5.61927 21.2381 5.22361C18.0209 4.82795 14.7662 5.56426 12.0343 7.30578C9.30244 9.04729 7.2644 11.685 6.27112 14.7648C5.27783 17.8445 5.39146 21.1736 6.59243 24.1788C7.7934 27.1839 10.0066 29.6771 12.8508 31.229C15.6951 32.7809 18.9925 33.2944 22.1753 32.6812C25.358 32.0679 28.227 30.3662 30.2881 27.8691C32.3492 25.372 33.4735 22.2357 33.4675 19.0003C33.4675 18.6643 33.3338 18.3421 33.0958 18.1046C32.8578 17.867 32.535 17.7336 32.1984 17.7336Z" fill="white"/>
</svg>
