<svg width="35" height="34" viewBox="0 0 35 34" fill="none" xmlns="http://www.w3.org/2000/svg">
<g clip-path="url(#clip0_23_609)">
<path d="M17.5492 22.3126C14.6199 22.3126 12.2366 19.9294 12.2366 17.0001C12.2366 14.0707 14.6199 11.6875 17.5492 11.6875C20.4783 11.6875 22.8616 14.0707 22.8616 17.0001C22.8616 19.9294 20.4783 22.3126 17.5492 22.3126ZM17.5492 13.2813C15.4985 13.2813 13.8304 14.9495 13.8304 17.0001C13.8304 19.0506 15.4985 20.7189 17.5492 20.7189C19.5997 20.7189 21.2678 19.0506 21.2678 17.0001C21.2678 14.9495 19.5997 13.2813 17.5492 13.2813Z" fill="white"/>
<path d="M19.3161 29.75H15.7821C14.9321 29.75 14.1809 29.1465 13.9961 28.3146L13.5488 26.3255C12.8199 26.0164 12.1249 25.6127 11.4726 25.1197L9.53566 25.7316C8.70474 25.9897 7.80164 25.637 7.38511 24.8933L5.62366 21.8472C5.20168 21.0927 5.34409 20.1642 5.9647 19.5797L7.46585 18.1996C7.42032 17.7947 7.39795 17.3932 7.39795 17C7.39795 16.6068 7.42032 16.2053 7.46488 15.8004L5.9721 14.4267C5.34409 13.8358 5.20071 12.9073 5.61821 12.1625L7.39056 9.0972C7.80164 8.3618 8.70688 8.01239 9.53255 8.26628L11.4726 8.87931C12.1249 8.38632 12.8199 7.98263 13.5488 7.67329L13.9971 5.68227C14.1809 4.85349 14.9321 4.25 15.7821 4.25H19.3161C20.166 4.25 20.9172 4.85349 21.102 5.68539L21.5493 7.67446C22.2783 7.9836 22.9732 8.38729 23.6255 8.88028L25.5625 8.26842C26.3955 8.01239 27.2965 8.36297 27.713 9.10674L29.4747 12.1528C29.8964 12.9073 29.754 13.8358 29.1334 14.4203L27.6323 15.8004C27.6768 16.2053 27.6992 16.608 27.6992 17C27.6992 17.392 27.6768 17.7947 27.6323 18.1996L29.126 19.5723C29.1282 19.5745 29.1303 19.5766 29.1334 19.5788C29.754 20.163 29.8974 21.0918 29.4799 21.8365L27.7076 24.9018C27.2965 25.637 26.3934 25.9888 25.5646 25.7316L23.6244 25.1186C22.972 25.6115 22.2771 26.0152 21.5483 26.3246L21.0999 28.3156C20.9172 29.1465 20.166 29.75 19.3161 29.75ZM11.6352 23.4376C11.8179 23.4376 11.9975 23.5003 12.142 23.6194C12.872 24.2197 13.6677 24.683 14.5103 24.9933C14.7642 25.0866 14.9523 25.3024 15.0118 25.5658L15.5527 27.9671C15.577 28.0777 15.6737 28.1562 15.7832 28.1562H19.317C19.4266 28.1562 19.5233 28.0777 19.5466 27.9693L20.0884 25.5658C20.148 25.3024 20.3361 25.0866 20.59 24.9933C21.4314 24.683 22.2283 24.2197 22.9582 23.6194C23.1666 23.4472 23.4469 23.3919 23.7053 23.4738L26.0438 24.2123C26.1553 24.2474 26.2743 24.2059 26.3253 24.1145L28.0976 21.0492C28.1507 20.9546 28.1315 20.825 28.0467 20.7422L26.2531 19.0932C26.0586 18.9146 25.9652 18.65 26.0045 18.3887C26.0745 17.9181 26.1097 17.4506 26.1097 16.999C26.1097 16.5473 26.0745 16.0798 26.0045 15.6092C25.9652 15.3479 26.0586 15.0843 26.2531 14.9047L28.0507 13.2514C28.1315 13.1761 28.1507 13.0442 28.0922 12.9392L26.3305 9.89291C26.2733 9.79194 26.1521 9.75167 26.0416 9.78669L23.7063 10.524C23.4491 10.6059 23.1687 10.5507 22.9594 10.3785C22.2294 9.77813 21.4335 9.3149 20.5909 9.0046C20.3371 8.91121 20.1489 8.69546 20.0896 8.43204L19.5487 6.03071C19.5221 5.92235 19.4254 5.84375 19.3161 5.84375H15.7821C15.6727 5.84375 15.576 5.92235 15.5527 6.03071L15.0107 8.43418C14.9513 8.6976 14.7632 8.91219 14.5093 9.00674C13.6677 9.31704 12.8708 9.78027 12.142 10.3806C11.9327 10.5528 11.65 10.6069 11.3952 10.5262L9.05649 9.78766C8.94715 9.75381 8.82595 9.79408 8.77497 9.88552L7.00263 12.9497C6.94951 13.0454 6.96878 13.1771 7.05691 13.26L8.84832 14.9059C9.04267 15.0843 9.13625 15.3489 9.09695 15.6103C9.02672 16.0809 8.9917 16.5485 8.9917 17C8.9917 17.4515 9.02672 17.9191 9.09695 18.3897C9.13625 18.6511 9.04267 18.9146 8.84832 19.0941L7.05049 20.7474C6.96975 20.8229 6.95068 20.9546 7.00905 21.0599L8.77069 24.1059C8.82692 24.2069 8.94812 24.2462 9.0596 24.2123L11.3952 23.4748C11.4738 23.4493 11.5545 23.4376 11.6352 23.4376Z" fill="white"/>
</g>
<defs>
<clipPath id="clip0_23_609">
<rect width="25.5" height="25.5" fill="white" transform="translate(4.78369 4.25)"/>
</clipPath>
</defs>
</svg>
