<svg width="33" height="32" viewBox="0 0 33 32" fill="none" xmlns="http://www.w3.org/2000/svg"><path d="M5.03418 5.12939L27.0342 27.1294" stroke="#fff" stroke-width="2" stroke-linecap="round" stroke-linejoin="round"/><path d="M14.0342 13.1292c0-.5523-.4477-1-1-1s-1 .4477-1 1h2zm-1 3h-1v.0008l1-.0008zm5.8266 2.8275c.3908-.3903.3912-1.0234.0009-1.4142-.3903-.3908-1.0234-.3912-1.4142-.0009l1.4133 1.4151zm-.8266-5.4875c0 .5522.4478 1 1 1 .5523 0 1-.4478 1-1h-2zm1-5.34004l-1-.001v.001h1zm-6.92-.79899c-.1099.54124.2398 1.06909.781 1.17899.5413.10991 1.0691-.23976 1.179-.781l-1.96-.39799zm-.08 5.79903v3h2v-3h-2zm0 3.0008c.0014 1.6168.976 3.0737 2.4697 3.6922l.7651-1.8478c-.7468-.3093-1.2341-1.0377-1.2348-1.8461l-2 .0017zm2.4697 3.6922c1.4938.6186 3.213.277 4.3569-.8655l-1.4133-1.4151c-.572.5713-1.4316.742-2.1785.4328l-.7651 1.8478zm5.5303-6.353V8.12916h-2v5.34004h2zm0-5.33903c.0021-2.05501-1.5534-3.77724-3.598-3.98377l-.201 1.98987c1.0223.10327 1.8001.96438 1.799 1.99189l2 .00201zm-3.598-3.98377c-2.0446-.20653-3.913 1.16985-4.322 3.18377l1.96.39799c.2045-1.00696 1.1387-1.69515 2.161-1.59189l.201-1.98987zM21.7487 21.7792c.3865-.3945.38-1.0276-.0145-1.4141-.3945-.3865-1.0276-.38-1.4141.0145l1.4286 1.3996zM9.03437 16.1294l1.00003.0073v-.0073H9.03437zm1.00003-2c0-.5523-.44775-1-1.00003-1-.55229 0-1 .4477-1 1h2.00003zm13.9999 0c0-.5523-.4477-1-1-1s-1 .4477-1 1h2zm-1 2l1 .0009v-.0009h-1zM21.94 17.1828c-.0975.5436.2641 1.0634.8077 1.1609.5436.0975 1.0634-.2641 1.1609-.8077l-1.9686-.3532zm-1.6199 3.1968c-1.7118 1.7471-4.3128 2.2804-6.5739 1.3476l-.7627 1.8489c3.0149 1.2436 6.4828.5327 8.7652-1.7969l-1.4286-1.3996zm-6.5739 1.3476c-2.2611-.9327-3.7298-3.1446-3.7119-5.5905l-1.9999-.0146c-.02386 3.2612 1.93428 6.2104 4.9491 7.454l.7627-1.8489zm-3.7118-5.5978v-2H8.03437v2h2.00003zm11.9999-2v2h2v-2h-2zm0 1.9991c-.0003.3535-.0318.7063-.0943 1.0543l1.9686.3532c.0832-.464.1253-.9344.1257-1.4057l-2-.0018z" fill="#fff"/><path d="M16.0342 23.1294v4M12.0342 27.1294h8" stroke="#fff" stroke-width="2" stroke-linecap="round" stroke-linejoin="round"/></svg>