<svg width="33" height="32" viewBox="0 0 33 32" fill="none" xmlns="http://www.w3.org/2000/svg"><path clip-rule="evenodd" d="M27.661 22.0556v3.6923c.0027.6931-.2761 1.3553-.768 1.8238-.4918.4686-1.151.7001-1.8157.6377-3.6471-.4115-7.1503-1.7056-10.2282-3.7784-2.8636-1.8897-5.29145-4.4109-7.11111-7.3847C5.735 13.8355 4.4885 10.1799 4.09947 6.37558c-.05988-.68816.16151-1.37077.61009-1.88108.44859-.51032 1.08306-.80135 1.74843-.802h3.55551c1.1898-.01216 2.2039.8935 2.3704 2.11693.1501 1.18162.4284 2.34181.8296 3.45846.3257.89951.1174 1.91361-.5333 2.59691l-1.5052 1.5631c1.6872 3.0813 4.144 5.6325 7.1111 7.3846l1.5052-1.5631c.658-.6757 1.6345-.892 2.5008-.5538 1.0753.4167 2.1925.7057 3.3303.8615 1.1918.1746 2.0684 1.249 2.0386 2.4985z" stroke="#EEE" stroke-width="2" stroke-linecap="round" stroke-linejoin="round"/></svg>