<svg width="33" height="32" viewBox="0 0 33 32" fill="none" xmlns="http://www.w3.org/2000/svg"><path d="M21.3674 26.9933v-2.1334c0-2.3564-1.9102-4.2666-4.2666-4.2666H8.56745c-2.35642 0-4.26667 1.9102-4.26667 4.2666v2.1334" stroke="#fff" stroke-width="2" stroke-linecap="round" stroke-linejoin="round"/><path clip-rule="evenodd" d="M12.834 16.3268c2.3565 0 4.2667-1.9103 4.2667-4.2667 0-2.35639-1.9102-4.26664-4.2667-4.26664-2.3564 0-4.26662 1.91025-4.26662 4.26664 0 2.3564 1.91022 4.2667 4.26662 4.2667z" stroke="#fff" stroke-width="2" stroke-linecap="round" stroke-linejoin="round"/><path d="M27.7674 26.9933v-2.1334c-.0015-1.9444-1.3174-3.6419-3.2-4.128M20.3008 7.93213c1.8879.48338 3.2083 2.18457 3.2083 4.13337 0 1.9488-1.3204 3.6499-3.2083 4.1333" stroke="#fff" stroke-width="2" stroke-linecap="round" stroke-linejoin="round"/></svg>