<!-- <svg width="22" height="22" viewBox="0 0 22 22" fill="none" xmlns="http://www.w3.org/2000/svg">
<path fill-rule="evenodd" clip-rule="evenodd" d="M13.75 5.5H3.66668C2.65415 5.5 1.83334 6.32081 1.83334 7.33333V14.6667C1.83334 15.6792 2.65415 16.5 3.66668 16.5H13.75C14.7625 16.5 15.5833 15.6792 15.5833 14.6667V13.881L18.7952 15.7163C18.9337 15.7955 19.0905 15.8371 19.25 15.8371C19.7563 15.8371 20.1667 15.4267 20.1667 14.9204V7.07958C20.1667 6.92006 20.125 6.76329 20.0459 6.62479C19.7947 6.18523 19.2348 6.03252 18.7952 6.28369L15.5833 8.11905V7.33333C15.5833 6.32081 14.7625 5.5 13.75 5.5ZM13.75 9.16667V12.8333V14.6667H3.66668V7.33333H13.75V9.16667ZM18.3333 13.3408L15.5833 11.7694V10.2306L18.3333 8.65916V13.3408Z" />
</svg> -->
<svg width="38" height="38" viewBox="0 0 38 38" fill="none" xmlns="http://www.w3.org/2000/svg">
<path fill-rule="evenodd" clip-rule="evenodd" d="M35 11.5615L24.819 18.5001L35 25.4387V11.5615Z" stroke="white" stroke-width="2" stroke-linecap="round" stroke-linejoin="round"/>
<path fill-rule="evenodd" clip-rule="evenodd" d="M3.00041 10.7859C3.00041 9.68132 3.89584 8.78589 5.00041 8.78589H22.8168C23.9214 8.78589 24.8168 9.68132 24.8168 10.7859V26.2139C24.8168 27.3185 23.9214 28.2139 22.8168 28.2139H5.00041C3.89584 28.2139 3.00041 27.3185 3.00041 26.2139V10.7859Z" stroke="white" stroke-width="2" stroke-linecap="round" stroke-linejoin="round"/>
</svg>
