<svg width="39" height="38" viewBox="0 0 39 38" fill="none" xmlns="http://www.w3.org/2000/svg">
<path d="M25.2842 23.9037C25.2842 23.3514 24.8365 22.9037 24.2842 22.9037C23.7319 22.9037 23.2842 23.3514 23.2842 23.9037H25.2842ZM6.47168 25.0912H5.47168H6.47168ZM11.2217 11.8412C11.774 11.8412 12.2217 11.3934 12.2217 10.8412C12.2217 10.2889 11.774 9.84116 11.2217 9.84116V11.8412ZM17.9429 9.84116C17.3906 9.84116 16.9429 10.2889 16.9429 10.8412C16.9429 11.3934 17.3906 11.8412 17.9429 11.8412V9.84116ZM24.2842 17.1824H23.2842C23.2842 17.4476 23.3895 17.702 23.5771 17.8895L24.2842 17.1824ZM25.4717 18.3699L24.7646 19.077C25.1118 19.4243 25.6599 19.468 26.0578 19.1802L25.4717 18.3699ZM32.5967 13.2162H33.5967C33.5967 12.8405 33.3861 12.4965 33.0516 12.3256C32.7171 12.1547 32.315 12.1857 32.0106 12.4059L32.5967 13.2162ZM31.5967 25.0912C31.5967 25.6434 32.0444 26.0912 32.5967 26.0912C33.149 26.0912 33.5967 25.6434 33.5967 25.0912H31.5967ZM23.2842 23.9037V25.0912H25.2842V23.9037H23.2842ZM23.2842 25.0912C23.2842 25.8505 22.6686 26.4662 21.9092 26.4662V28.4662C23.7731 28.4662 25.2842 26.9551 25.2842 25.0912H23.2842ZM21.9092 26.4662H8.84668V28.4662H21.9092V26.4662ZM8.84668 26.4662C8.08729 26.4662 7.47168 25.8505 7.47168 25.0912H5.47168C5.47168 26.9551 6.98272 28.4662 8.84668 28.4662V26.4662ZM7.47168 25.0912V13.2162H5.47168V25.0912H7.47168ZM7.47168 13.2162C7.47168 12.4568 8.08729 11.8412 8.84668 11.8412V9.84116C6.98272 9.84116 5.47168 11.3522 5.47168 13.2162H7.47168ZM8.84668 11.8412H11.2217V9.84116H8.84668V11.8412ZM17.9429 11.8412H21.9092V9.84116H17.9429V11.8412ZM21.9092 11.8412C22.6686 11.8412 23.2842 12.4568 23.2842 13.2162H25.2842C25.2842 11.3522 23.7731 9.84116 21.9092 9.84116V11.8412ZM23.2842 13.2162V17.1824H25.2842V13.2162H23.2842ZM23.5771 17.8895L24.7646 19.077L26.1788 17.6628L24.9913 16.4753L23.5771 17.8895ZM26.0578 19.1802L33.1828 14.0264L32.0106 12.4059L24.8856 17.5597L26.0578 19.1802ZM31.5967 13.2162V25.0912H33.5967V13.2162H31.5967Z" fill="white"/>
<path d="M6.47168 6.09116L32.5967 32.2162" stroke="white" stroke-width="2" stroke-linecap="round" stroke-linejoin="round"/>
</svg>