<!-- Generated by IcoMoon.io -->
<svg width="48" height="46" viewBox="0 0 48 46" fill="none" xmlns="http://www.w3.org/2000/svg">
<path d="M0 23C0 10.2975 10.2975 0 23 0H25C37.7025 0 48 10.2975 48 23C48 35.7025 37.7025 46 25 46H23C10.2975 46 0 35.7025 0 23Z" fill="#FF3636"/>
<path fill-rule="evenodd" clip-rule="evenodd" d="M36.9992 29.7173V33.4808C37.0022 34.1873 36.6947 34.8622 36.1522 35.3398C35.6097 35.8174 34.8825 36.0534 34.1493 35.9898C30.1266 35.5704 26.2626 34.2512 22.8676 32.1385C19.709 30.2124 17.031 27.6426 15.0239 24.6115C12.8146 21.3387 11.4397 17.6126 11.0106 13.7349C10.9446 13.0335 11.1888 12.3377 11.6836 11.8176C12.1784 11.2974 12.8782 11.0008 13.6121 11.0001H17.5339C18.8462 10.9877 19.9648 11.9109 20.1484 13.1579C20.314 14.3623 20.621 15.5448 21.0635 16.683C21.4227 17.5999 21.193 18.6335 20.4753 19.33L18.815 20.9232C20.676 24.0639 23.3858 26.6644 26.6587 28.4502L28.3189 26.857C29.0447 26.1683 30.1218 25.9478 31.0772 26.2925C32.2633 26.7172 33.4956 27.0118 34.7507 27.1707C36.0652 27.3486 37.0321 28.4437 36.9992 29.7173Z" stroke="white" stroke-width="2" stroke-linecap="round" stroke-linejoin="round"/>
</svg>
