<svg width="38" height="38" viewBox="0 0 38 38" fill="none" xmlns="http://www.w3.org/2000/svg">
<path fill-rule="evenodd" clip-rule="evenodd" d="M16.7547 20.0286C16.7547 21.4522 17.9088 22.6062 19.3324 22.6062C20.756 22.6062 21.91 21.4522 21.91 20.0286C21.91 18.605 20.756 17.4509 19.3324 17.4509C17.9088 17.4509 16.7547 18.605 16.7547 20.0286Z" fill="white"/>
<path fill-rule="evenodd" clip-rule="evenodd" d="M16.754 29.4807C16.754 30.9043 17.9081 32.0584 19.3317 32.0584C20.7553 32.0584 21.9093 30.9043 21.9093 29.4807C21.9093 28.0571 20.7553 26.9031 19.3317 26.9031C17.9081 26.9031 16.754 28.0571 16.754 29.4807Z" fill="white"/>
<path fill-rule="evenodd" clip-rule="evenodd" d="M16.754 10.5776C16.754 12.0012 17.9081 13.1553 19.3317 13.1553C20.7553 13.1553 21.9093 12.0012 21.9093 10.5776C21.9093 9.15405 20.7553 8 19.3317 8C17.9081 8 16.754 9.15405 16.754 10.5776Z" fill="white"/>
</svg>
