<!-- Generated by IcoMoon.io -->
<svg width="43" height="43" viewBox="0 0 43 43" fill="none" xmlns="http://www.w3.org/2000/svg">
<rect width="43" height="43" rx="4" fill="#2F80ED"/>
<rect width="43" height="43" rx="4" fill="#2F80ED"/>
<path d="M21.4761 9.26343C17.5753 9.26343 14.4018 12.437 14.4018 16.3378C14.4018 18.7539 15.6197 20.8907 17.4735 22.1675C15.7427 22.7648 14.1563 23.7514 12.8235 25.0841C10.5122 27.3954 9.2394 30.4683 9.2394 33.7369H11.1514C11.1514 28.0438 15.783 23.4121 21.4761 23.4121C25.3769 23.4121 28.5504 20.2385 28.5504 16.3378C28.5504 12.437 25.3769 9.26343 21.4761 9.26343ZM21.4761 21.5001C18.6296 21.5001 16.3138 19.1843 16.3138 16.3378C16.3138 13.4913 18.6296 11.1754 21.4761 11.1754C24.3226 11.1754 26.6384 13.4912 26.6384 16.3378C26.6384 19.1844 24.3226 21.5001 21.4761 21.5001Z" fill="white"/>
<path d="M29.7456 27.8096V23.7944H27.8336V27.8096H23.8184V29.7216H27.8336V33.7368H29.7456V29.7216H33.7608V27.8096H29.7456Z" fill="white"/>
</svg>