<svg width="39" height="38" viewBox="0 0 39 38" fill="none" xmlns="http://www.w3.org/2000/svg">
<path d="M6.47168 6.09116L32.5967 32.2162" stroke="white" stroke-width="2" stroke-linecap="round" stroke-linejoin="round"/>
<path d="M16.9717 15.5909C16.9717 15.0386 16.524 14.5909 15.9717 14.5909C15.4194 14.5909 14.9717 15.0386 14.9717 15.5909H16.9717ZM15.9717 19.1534L14.9717 19.1534L14.9717 19.1543L15.9717 19.1534ZM22.7583 22.3784C23.1491 21.9881 23.1495 21.355 22.7592 20.9642C22.3689 20.5734 21.7358 20.5731 21.345 20.9633L22.7583 22.3784ZM22.0968 15.9946C22.0968 16.5469 22.5445 16.9946 23.0968 16.9946C23.649 16.9946 24.0968 16.5469 24.0968 15.9946H22.0968ZM23.0968 9.65338L22.0968 9.65238V9.65338H23.0968ZM15.063 8.74189C14.9531 9.28313 15.3028 9.81098 15.844 9.92088C16.3852 10.0308 16.9131 9.68112 17.023 9.13988L15.063 8.74189ZM14.9717 15.5909V19.1534H16.9717V15.5909H14.9717ZM14.9717 19.1543C14.9733 20.9984 16.0849 22.6602 17.7887 23.3657L18.5539 21.5178C17.5969 21.1216 16.9726 20.1882 16.9717 19.1525L14.9717 19.1543ZM17.7887 23.3657C19.4926 24.0712 21.4536 23.6816 22.7583 22.3784L21.345 20.9633C20.6122 21.6953 19.5108 21.9141 18.5539 21.5178L17.7887 23.3657ZM24.0968 15.9946V9.65338H22.0968V15.9946H24.0968ZM24.0968 9.65439C24.0991 7.31039 22.3249 5.34597 19.9928 5.1104L19.7918 7.10027C21.1016 7.23258 22.0981 8.33588 22.0968 9.65238L24.0968 9.65439ZM19.9928 5.1104C17.6606 4.87483 15.5294 6.44477 15.063 8.74189L17.023 9.13988C17.285 7.84971 18.482 6.96797 19.7918 7.10027L19.9928 5.1104Z" fill="white"/>
<path d="M26.1862 25.7316C26.5727 25.3371 26.5662 24.704 26.1717 24.3175C25.7772 23.931 25.1441 23.9375 24.7576 24.332L26.1862 25.7316ZM11.2219 19.1537L12.2219 19.161V19.1537H11.2219ZM12.2219 16.7787C12.2219 16.2264 11.7742 15.7787 11.2219 15.7787C10.6696 15.7787 10.2219 16.2264 10.2219 16.7787H12.2219ZM28.8468 16.7787C28.8468 16.2264 28.3991 15.7787 27.8468 15.7787C27.2946 15.7787 26.8468 16.2264 26.8468 16.7787H28.8468ZM27.8468 19.1537L28.8468 19.1545V19.1537H27.8468ZM26.7319 20.4377C26.6344 20.9813 26.996 21.501 27.5396 21.5986C28.0832 21.6961 28.603 21.3345 28.7005 20.7909L26.7319 20.4377ZM24.7576 24.332C22.6714 26.4613 19.5015 27.1112 16.7457 25.9744L15.983 27.8233C19.4925 29.271 23.5294 28.4434 26.1862 25.7316L24.7576 24.332ZM16.7457 25.9744C13.9899 24.8377 12.2001 22.1419 12.2219 19.161L10.2219 19.1463C10.1942 22.9426 12.4736 26.3756 15.983 27.8233L16.7457 25.9744ZM12.2219 19.1537V16.7787H10.2219V19.1537H12.2219ZM26.8468 16.7787V19.1537H28.8468V16.7787H26.8468ZM26.8468 19.1528C26.8465 19.5836 26.808 20.0136 26.7319 20.4377L28.7005 20.7909C28.7974 20.2508 28.8464 19.7032 28.8468 19.1545L26.8468 19.1528Z" fill="white"/>
<path d="M19.5342 27.4662V32.2162" stroke="white" stroke-width="2" stroke-linecap="round" stroke-linejoin="round"/>
<path d="M14.7842 32.2162H24.2842" stroke="white" stroke-width="2" stroke-linecap="round" stroke-linejoin="round"/>
</svg>